Terminal-Grotesque-var 0.ufo
<glyph name="six" format="1">
  <advance width="554"/>
  <unicode hex="0036"/>
  <outline>
    <contour>
      <point x="367" y="96" type="line"/>
      <point x="367" y="128" type="line"/>
      <point x="399" y="128" type="line"/>
      <point x="399" y="256" type="line"/>
      <point x="367" y="256" type="line"/>
      <point x="367" y="288" type="line"/>
      <point x="207" y="288" type="line"/>
      <point x="207" y="256" type="line"/>
      <point x="175" y="256" type="line"/>
      <point x="175" y="128" type="line"/>
      <point x="207" y="128" type="line"/>
      <point x="207" y="96" type="line"/>
    </contour>
    <contour>
      <point x="175" y="0" type="line"/>
      <point x="175" y="32" type="line"/>
      <point x="111" y="32" type="line"/>
      <point x="111" y="96" type="line"/>
      <point x="79" y="96" type="line"/>
      <point x="79" y="192" type="line"/>
      <point x="47" y="192" type="line"/>
      <point x="47" y="448" type="line"/>
      <point x="79" y="448" type="line"/>
      <point x="79" y="544" type="line"/>
      <point x="111" y="544" type="line"/>
      <point x="111" y="608" type="line"/>
      <point x="175" y="608" type="line"/>
      <point x="175" y="640" type="line"/>
      <point x="399" y="640" type="line"/>
      <point x="399" y="608" type="line"/>
      <point x="463" y="608" type="line"/>
      <point x="463" y="544" type="line"/>
      <point x="495" y="544" type="line"/>
      <point x="495" y="480" type="line"/>
      <point x="399" y="480" type="line"/>
      <point x="399" y="512" type="line"/>
      <point x="367" y="512" type="line"/>
      <point x="367" y="544" type="line"/>
      <point x="207" y="544" type="line"/>
      <point x="207" y="512" type="line"/>
      <point x="175" y="512" type="line"/>
      <point x="175" y="416" type="line"/>
      <point x="143" y="416" type="line"/>
      <point x="143" y="320" type="line"/>
      <point x="175" y="320" type="line"/>
      <point x="175" y="352" type="line"/>
      <point x="207" y="352" type="line"/>
      <point x="207" y="384" type="line"/>
      <point x="431" y="384" type="line"/>
      <point x="431" y="352" type="line"/>
      <point x="463" y="352" type="line"/>
      <point x="463" y="320" type="line"/>
      <point x="495" y="320" type="line"/>
      <point x="495" y="96" type="line"/>
      <point x="463" y="96" type="line"/>
      <point x="463" y="32" type="line"/>
      <point x="399" y="32" type="line"/>
      <point x="399" y="0" type="line"/>
    </contour>
  </outline>
</glyph>
<glyph name="greater" format="1">
  <advance width="366"/>
  <unicode hex="003E"/>
  <outline>
    <contour>
      <point x="81" y="64" type="line"/>
      <point x="81" y="96" type="line"/>
      <point x="49" y="96" type="line"/>
      <point x="49" y="128" type="line"/>
      <point x="81" y="128" type="line"/>
      <point x="81" y="160" type="line"/>
      <point x="113" y="160" type="line"/>
      <point x="113" y="192" type="line"/>
      <point x="145" y="192" type="line"/>
      <point x="145" y="224" type="line"/>
      <point x="177" y="224" type="line"/>
      <point x="177" y="256" type="line"/>
      <point x="209" y="256" type="line"/>
      <point x="209" y="288" type="line"/>
      <point x="241" y="288" type="line"/>
      <point x="241" y="320" type="line"/>
      <point x="209" y="320" type="line"/>
      <point x="209" y="352" type="line"/>
      <point x="177" y="352" type="line"/>
      <point x="177" y="384" type="line"/>
      <point x="145" y="384" type="line"/>
      <point x="145" y="416" type="line"/>
      <point x="113" y="416" type="line"/>
      <point x="113" y="448" type="line"/>
      <point x="81" y="448" type="line"/>
      <point x="81" y="480" type="line"/>
      <point x="49" y="480" type="line"/>
      <point x="49" y="512" type="line"/>
      <point x="81" y="512" type="line"/>
      <point x="81" y="544" type="line"/>
      <point x="113" y="544" type="line"/>
      <point x="113" y="512" type="line"/>
      <point x="145" y="512" type="line"/>
      <point x="145" y="480" type="line"/>
      <point x="177" y="480" type="line"/>
      <point x="177" y="448" type="line"/>
      <point x="209" y="448" type="line"/>
      <point x="209" y="416" type="line"/>
      <point x="241" y="416" type="line"/>
      <point x="241" y="384" type="line"/>
      <point x="273" y="384" type="line"/>
      <point x="273" y="352" type="line"/>
      <point x="305" y="352" type="line"/>
      <point x="305" y="320" type="line"/>
      <point x="337" y="320" type="line"/>
      <point x="337" y="288" type="line"/>
      <point x="305" y="288" type="line"/>
      <point x="305" y="256" type="line"/>
      <point x="273" y="256" type="line"/>
      <point x="273" y="224" type="line"/>
      <point x="241" y="224" type="line"/>
      <point x="241" y="192" type="line"/>
      <point x="209" y="192" type="line"/>
      <point x="209" y="160" type="line"/>
      <point x="177" y="160" type="line"/>
      <point x="177" y="128" type="line"/>
      <point x="145" y="128" type="line"/>
      <point x="145" y="96" type="line"/>
      <point x="113" y="96" type="line"/>
      <point x="113" y="64" type="line"/>
    </contour>
  </outline>
</glyph>
<glyph name="E" format="1">
  <advance width="500"/>
  <unicode hex="0045"/>
  <outline>
    <contour>
      <point x="57" y="0" type="line"/>
      <point x="57" y="640" type="line"/>
      <point x="441" y="640" type="line"/>
      <point x="441" y="544" type="line"/>
      <point x="153" y="544" type="line"/>
      <point x="153" y="384" type="line"/>
      <point x="441" y="384" type="line"/>
      <point x="441" y="288" type="line"/>
      <point x="153" y="288" type="line"/>
      <point x="153" y="96" type="line"/>
      <point x="441" y="96" type="line"/>
      <point x="441" y="0" type="line"/>
    </contour>
  </outline>
</glyph>
<glyph name="L" format="1">
  <advance width="521"/>
  <unicode hex="004C"/>
  <outline>
    <contour>
      <point x="57" y="0" type="line"/>
      <point x="57" y="640" type="line"/>
      <point x="153" y="640" type="line"/>
      <point x="153" y="96" type="line"/>
      <point x="473" y="96" type="line"/>
      <point x="473" y="0" type="line"/>
    </contour>
  </outline>
</glyph>
<glyph name="bracketright" format="1">
  <advance width="269"/>
  <unicode hex="005D"/>
  <outline>
    <contour>
      <point x="12" y="-96" type="line"/>
      <point x="12" y="-32" type="line"/>
      <point x="140" y="-32" type="line"/>
      <point x="140" y="672" type="line"/>
      <point x="12" y="672" type="line"/>
      <point x="12" y="736" type="line"/>
      <point x="204" y="736" type="line"/>
      <point x="204" y="-96" type="line"/>
    </contour>
  </outline>
</glyph>
<glyph name="grave" format="1">
  <advance width="229"/>
  <unicode hex="0060"/>
  <outline>
    <contour>
      <point x="74" y="544" type="line"/>
      <point x="74" y="576" type="line"/>
      <point x="42" y="576" type="line"/>
      <point x="42" y="608" type="line"/>
      <point x="10" y="608" type="line"/>
      <point x="10" y="640" type="line"/>
      <point x="106" y="640" type="line"/>
      <point x="106" y="608" type="line"/>
      <point x="138" y="608" type="line"/>
      <point x="138" y="576" type="line"/>
      <point x="170" y="576" type="line"/>
      <point x="170" y="544" type="line"/>
    </contour>
  </outline>
</glyph>
<glyph name="t" format="1">
  <advance width="361"/>
  <unicode hex="0074"/>
  <outline>
    <contour>
      <point x="104" y="0" type="line"/>
      <point x="104" y="384" type="line"/>
      <point x="40" y="384" type="line"/>
      <point x="40" y="480" type="line"/>
      <point x="104" y="480" type="line"/>
      <point x="104" y="608" type="line"/>
      <point x="200" y="608" type="line"/>
      <point x="200" y="480" type="line"/>
      <point x="328" y="480" type="line"/>
      <point x="328" y="384" type="line"/>
      <point x="200" y="384" type="line"/>
      <point x="200" y="0" type="line"/>
    </contour>
  </outline>
</glyph>
<glyph name="bar" format="1">
  <advance width="187"/>
  <unicode hex="007C"/>
  <outline>
    <contour>
      <point x="58" y="-96" type="line"/>
      <point x="58" y="736" type="line"/>
      <point x="122" y="736" type="line"/>
      <point x="122" y="-96" type="line"/>
    </contour>
  </outline>
</glyph>
<glyph name="ordfeminine" format="1">
  <advance width="367"/>
  <unicode hex="00AA"/>
  <outline>
    <contour>
      <point x="52" y="128" type="line"/>
      <point x="52" y="192" type="line"/>
      <point x="308" y="192" type="line"/>
      <point x="308" y="128" type="line"/>
    </contour>
    <contour>
      <point x="212" y="288" type="line"/>
      <point x="212" y="320" type="line"/>
      <point x="244" y="320" type="line"/>
      <point x="244" y="384" type="line"/>
      <point x="148" y="384" type="line"/>
      <point x="148" y="352" type="line"/>
      <point x="116" y="352" type="line"/>
      <point x="116" y="320" type="line"/>
      <point x="148" y="320" type="line"/>
      <point x="148" y="288" type="line"/>
    </contour>
    <contour>
      <point x="116" y="224" type="line"/>
      <point x="116" y="256" type="line"/>
      <point x="84" y="256" type="line"/>
      <point x="84" y="288" type="line"/>
      <point x="52" y="288" type="line"/>
      <point x="52" y="384" type="line"/>
      <point x="84" y="384" type="line"/>
      <point x="84" y="416" type="line"/>
      <point x="116" y="416" type="line"/>
      <point x="116" y="448" type="line"/>
      <point x="244" y="448" type="line"/>
      <point x="244" y="512" type="line"/>
      <point x="116" y="512" type="line"/>
      <point x="116" y="480" type="line"/>
      <point x="52" y="480" type="line"/>
      <point x="52" y="512" type="line"/>
      <point x="84" y="512" type="line"/>
      <point x="84" y="544" type="line"/>
      <point x="116" y="544" type="line"/>
      <point x="116" y="576" type="line"/>
      <point x="244" y="576" type="line"/>
      <point x="244" y="544" type="line"/>
      <point x="276" y="544" type="line"/>
      <point x="276" y="512" type="line"/>
      <point x="308" y="512" type="line"/>
      <point x="308" y="224" type="line"/>
      <point x="244" y="224" type="line"/>
      <point x="244" y="256" type="line"/>
      <point x="212" y="256" type="line"/>
      <point x="212" y="224" type="line"/>
    </contour>
  </outline>
</glyph>
<glyph name="logicalnot" format="1">
  <advance width="761"/>
  <unicode hex="00AC"/>
  <outline>
    <contour>
      <point x="649" y="0" type="line"/>
      <point x="649" y="288" type="line"/>
      <point x="9" y="288" type="line"/>
      <point x="9" y="352" type="line"/>
      <point x="713" y="352" type="line"/>
      <point x="713" y="0" type="line"/>
    </contour>
  </outline>
</glyph>
<glyph name="uni00B2" format="1">
  <advance width="256"/>
  <unicode hex="00B2"/>
  <outline>
    <contour>
      <point x="37" y="448" type="line"/>
      <point x="37" y="512" type="line"/>
      <point x="69" y="512" type="line"/>
      <point x="69" y="544" type="line"/>
      <point x="101" y="544" type="line"/>
      <point x="101" y="576" type="line"/>
      <point x="133" y="576" type="line"/>
      <point x="133" y="640" type="line"/>
      <point x="69" y="640" type="line"/>
      <point x="69" y="608" type="line"/>
      <point x="37" y="608" type="line"/>
      <point x="37" y="672" type="line"/>
      <point x="165" y="672" type="line"/>
      <point x="165" y="640" type="line"/>
      <point x="197" y="640" type="line"/>
      <point x="197" y="576" type="line"/>
      <point x="165" y="576" type="line"/>
      <point x="165" y="544" type="line"/>
      <point x="133" y="544" type="line"/>
      <point x="133" y="512" type="line"/>
      <point x="101" y="512" type="line"/>
      <point x="101" y="480" type="line"/>
      <point x="165" y="480" type="line"/>
      <point x="165" y="512" type="line"/>
      <point x="197" y="512" type="line"/>
      <point x="197" y="448" type="line"/>
    </contour>
  </outline>
</glyph>
<glyph name="acute" format="1">
  <advance width="242"/>
  <unicode hex="00B4"/>
  <outline>
    <contour>
      <point x="17" y="576" type="line"/>
      <point x="17" y="608" type="line"/>
      <point x="49" y="608" type="line"/>
      <point x="49" y="640" type="line"/>
      <point x="81" y="640" type="line"/>
      <point x="81" y="672" type="line"/>
      <point x="177" y="672" type="line"/>
      <point x="177" y="640" type="line"/>
      <point x="145" y="640" type="line"/>
      <point x="145" y="608" type="line"/>
      <point x="113" y="608" type="line"/>
      <point x="113" y="576" type="line"/>
    </contour>
  </outline>
</glyph>
<glyph name="uni00B9" format="1">
  <advance width="201"/>
  <unicode hex="00B9"/>
  <outline>
    <contour>
      <point x="8" y="576" type="line"/>
      <point x="8" y="608" type="line"/>
      <point x="40" y="608" type="line"/>
      <point x="40" y="576" type="line"/>
    </contour>
    <contour>
      <point x="72" y="480" type="line"/>
      <point x="72" y="608" type="line"/>
      <point x="40" y="608" type="line"/>
      <point x="40" y="640" type="line"/>
      <point x="72" y="640" type="line"/>
      <point x="72" y="672" type="line"/>
      <point x="136" y="672" type="line"/>
      <point x="136" y="480" type="line"/>
    </contour>
  </outline>
</glyph>
<glyph name="guillemotright" format="1">
  <advance width="558"/>
  <unicode hex="00BB"/>
  <outline>
    <contour>
      <point x="81" y="64" type="line"/>
      <point x="81" y="96" type="line"/>
      <point x="49" y="96" type="line"/>
      <point x="49" y="128" type="line"/>
      <point x="81" y="128" type="line"/>
      <point x="81" y="160" type="line"/>
      <point x="113" y="160" type="line"/>
      <point x="113" y="192" type="line"/>
      <point x="145" y="192" type="line"/>
      <point x="145" y="224" type="line"/>
      <point x="177" y="224" type="line"/>
      <point x="177" y="256" type="line"/>
      <point x="209" y="256" type="line"/>
      <point x="209" y="288" type="line"/>
      <point x="241" y="288" type="line"/>
      <point x="241" y="320" type="line"/>
      <point x="209" y="320" type="line"/>
      <point x="209" y="352" type="line"/>
      <point x="177" y="352" type="line"/>
      <point x="177" y="384" type="line"/>
      <point x="145" y="384" type="line"/>
      <point x="145" y="416" type="line"/>
      <point x="113" y="416" type="line"/>
      <point x="113" y="448" type="line"/>
      <point x="81" y="448" type="line"/>
      <point x="81" y="480" type="line"/>
      <point x="49" y="480" type="line"/>
      <point x="49" y="512" type="line"/>
      <point x="81" y="512" type="line"/>
      <point x="81" y="544" type="line"/>
      <point x="113" y="544" type="line"/>
      <point x="113" y="512" type="line"/>
      <point x="145" y="512" type="line"/>
      <point x="145" y="480" type="line"/>
      <point x="177" y="480" type="line"/>
      <point x="177" y="448" type="line"/>
      <point x="209" y="448" type="line"/>
      <point x="209" y="416" type="line"/>
      <point x="241" y="416" type="line"/>
      <point x="241" y="384" type="line"/>
      <point x="273" y="384" type="line"/>
      <point x="273" y="352" type="line"/>
      <point x="305" y="352" type="line"/>
      <point x="305" y="320" type="line"/>
      <point x="337" y="320" type="line"/>
      <point x="337" y="288" type="line"/>
      <point x="305" y="288" type="line"/>
      <point x="305" y="256" type="line"/>
      <point x="273" y="256" type="line"/>
      <point x="273" y="224" type="line"/>
      <point x="241" y="224" type="line"/>
      <point x="241" y="192" type="line"/>
      <point x="209" y="192" type="line"/>
      <point x="209" y="160" type="line"/>
      <point x="177" y="160" type="line"/>
      <point x="177" y="128" type="line"/>
      <point x="145" y="128" type="line"/>
      <point x="145" y="96" type="line"/>
      <point x="113" y="96" type="line"/>
      <point x="113" y="64" type="line"/>
    </contour>
    <contour>
      <point x="273" y="64" type="line"/>
      <point x="273" y="96" type="line"/>
      <point x="241" y="96" type="line"/>
      <point x="241" y="128" type="line"/>
      <point x="273" y="128" type="line"/>
      <point x="273" y="160" type="line"/>
      <point x="305" y="160" type="line"/>
      <point x="305" y="192" type="line"/>
      <point x="337" y="192" type="line"/>
      <point x="337" y="224" type="line"/>
      <point x="369" y="224" type="line"/>
      <point x="369" y="256" type="line"/>
      <point x="401" y="256" type="line"/>
      <point x="401" y="288" type="line"/>
      <point x="433" y="288" type="line"/>
      <point x="433" y="320" type="line"/>
      <point x="401" y="320" type="line"/>
      <point x="401" y="352" type="line"/>
      <point x="369" y="352" type="line"/>
      <point x="369" y="384" type="line"/>
      <point x="337" y="384" type="line"/>
      <point x="337" y="416" type="line"/>
      <point x="305" y="416" type="line"/>
      <point x="305" y="448" type="line"/>
      <point x="273" y="448" type="line"/>
      <point x="273" y="480" type="line"/>
      <point x="241" y="480" type="line"/>
      <point x="241" y="512" type="line"/>
      <point x="273" y="512" type="line"/>
      <point x="273" y="544" type="line"/>
      <point x="305" y="544" type="line"/>
      <point x="305" y="512" type="line"/>
      <point x="337" y="512" type="line"/>
      <point x="337" y="480" type="line"/>
      <point x="369" y="480" type="line"/>
      <point x="369" y="448" type="line"/>
      <point x="401" y="448" type="line"/>
      <point x="401" y="416" type="line"/>
      <point x="433" y="416" type="line"/>
      <point x="433" y="384" type="line"/>
      <point x="465" y="384" type="line"/>
      <point x="465" y="352" type="line"/>
      <point x="497" y="352" type="line"/>
      <point x="497" y="320" type="line"/>
      <point x="529" y="320" type="line"/>
      <point x="529" y="288" type="line"/>
      <point x="497" y="288" type="line"/>
      <point x="497" y="256" type="line"/>
      <point x="465" y="256" type="line"/>
      <point x="465" y="224" type="line"/>
      <point x="433" y="224" type="line"/>
      <point x="433" y="192" type="line"/>
      <point x="401" y="192" type="line"/>
      <point x="401" y="160" type="line"/>
      <point x="369" y="160" type="line"/>
      <point x="369" y="128" type="line"/>
      <point x="337" y="128" type="line"/>
      <point x="337" y="96" type="line"/>
      <point x="305" y="96" type="line"/>
      <point x="305" y="64" type="line"/>
    </contour>
  </outline>
</glyph>
<glyph name="threequarters" format="1">
  <advance width="737"/>
  <unicode hex="00BE"/>
  <outline>
    <contour>
      <point x="598" y="128" type="line"/>
      <point x="598" y="224" type="line"/>
      <point x="566" y="224" type="line"/>
      <point x="566" y="192" type="line"/>
      <point x="534" y="192" type="line"/>
      <point x="534" y="160" type="line"/>
      <point x="502" y="160" type="line"/>
      <point x="502" y="128" type="line"/>
    </contour>
    <contour>
      <point x="598" y="0" type="line"/>
      <point x="598" y="64" type="line"/>
      <point x="438" y="64" type="line"/>
      <point x="438" y="160" type="line"/>
      <point x="470" y="160" type="line"/>
      <point x="470" y="192" type="line"/>
      <point x="502" y="192" type="line"/>
      <point x="502" y="224" type="line"/>
      <point x="534" y="224" type="line"/>
      <point x="534" y="256" type="line"/>
      <point x="566" y="256" type="line"/>
      <point x="566" y="288" type="line"/>
      <point x="598" y="288" type="line"/>
      <point x="598" y="320" type="line"/>
      <point x="662" y="320" type="line"/>
      <point x="662" y="128" type="line"/>
      <point x="694" y="128" type="line"/>
      <point x="694" y="64" type="line"/>
      <point x="662" y="64" type="line"/>
      <point x="662" y="0" type="line"/>
    </contour>
    <contour>
      <point x="86" y="288" type="line"/>
      <point x="86" y="320" type="line"/>
      <point x="54" y="320" type="line"/>
      <point x="54" y="384" type="line"/>
      <point x="118" y="384" type="line"/>
      <point x="118" y="320" type="line"/>
      <point x="182" y="320" type="line"/>
      <point x="182" y="416" type="line"/>
      <point x="118" y="416" type="line"/>
      <point x="118" y="448" type="line"/>
      <point x="182" y="448" type="line"/>
      <point x="182" y="544" type="line"/>
      <point x="118" y="544" type="line"/>
      <point x="118" y="480" type="line"/>
      <point x="54" y="480" type="line"/>
      <point x="54" y="544" type="line"/>
      <point x="86" y="544" type="line"/>
      <point x="86" y="576" type="line"/>
      <point x="214" y="576" type="line"/>
      <point x="214" y="544" type="line"/>
      <point x="246" y="544" type="line"/>
      <point x="246" y="448" type="line"/>
      <point x="214" y="448" type="line"/>
      <point x="214" y="416" type="line"/>
      <point x="246" y="416" type="line"/>
      <point x="246" y="320" type="line"/>
      <point x="214" y="320" type="line"/>
      <point x="214" y="288" type="line"/>
    </contour>
    <contour>
      <point x="54" y="0" type="line"/>
      <point x="54" y="32" type="line"/>
      <point x="86" y="32" type="line"/>
      <point x="86" y="64" type="line"/>
      <point x="118" y="64" type="line"/>
      <point x="118" y="96" type="line"/>
      <point x="150" y="96" type="line"/>
      <point x="150" y="128" type="line"/>
      <point x="182" y="128" type="line"/>
      <point x="182" y="160" type="line"/>
      <point x="214" y="160" type="line"/>
      <point x="214" y="192" type="line"/>
      <point x="246" y="192" type="line"/>
      <point x="246" y="224" type="line"/>
      <point x="278" y="224" type="line"/>
      <point x="278" y="256" type="line"/>
      <point x="310" y="256" type="line"/>
      <point x="310" y="288" type="line"/>
      <point x="342" y="288" type="line"/>
      <point x="342" y="320" type="line"/>
      <point x="374" y="320" type="line"/>
      <point x="374" y="352" type="line"/>
      <point x="406" y="352" type="line"/>
      <point x="406" y="384" type="line"/>
      <point x="438" y="384" type="line"/>
      <point x="438" y="416" type="line"/>
      <point x="470" y="416" type="line"/>
      <point x="470" y="448" type="line"/>
      <point x="502" y="448" type="line"/>
      <point x="502" y="480" type="line"/>
      <point x="534" y="480" type="line"/>
      <point x="534" y="512" type="line"/>
      <point x="566" y="512" type="line"/>
      <point x="566" y="544" type="line"/>
      <point x="598" y="544" type="line"/>
      <point x="598" y="576" type="line"/>
      <point x="662" y="576" type="line"/>
      <point x="662" y="544" type="line"/>
      <point x="630" y="544" type="line"/>
      <point x="630" y="512" type="line"/>
      <point x="598" y="512" type="line"/>
      <point x="598" y="480" type="line"/>
      <point x="566" y="480" type="line"/>
      <point x="566" y="448" type="line"/>
      <point x="534" y="448" type="line"/>
      <point x="534" y="416" type="line"/>
      <point x="502" y="416" type="line"/>
      <point x="502" y="384" type="line"/>
      <point x="470" y="384" type="line"/>
      <point x="470" y="352" type="line"/>
      <point x="438" y="352" type="line"/>
      <point x="438" y="320" type="line"/>
      <point x="406" y="320" type="line"/>
      <point x="406" y="288" type="line"/>
      <point x="374" y="288" type="line"/>
      <point x="374" y="256" type="line"/>
      <point x="342" y="256" type="line"/>
      <point x="342" y="224" type="line"/>
      <point x="310" y="224" type="line"/>
      <point x="310" y="192" type="line"/>
      <point x="278" y="192" type="line"/>
      <point x="278" y="160" type="line"/>
      <point x="246" y="160" type="line"/>
      <point x="246" y="128" type="line"/>
      <point x="214" y="128" type="line"/>
      <point x="214" y="96" type="line"/>
      <point x="182" y="96" type="line"/>
      <point x="182" y="64" type="line"/>
      <point x="150" y="64" type="line"/>
      <point x="150" y="32" type="line"/>
      <point x="118" y="32" type="line"/>
      <point x="118" y="0" type="line"/>
    </contour>
  </outline>
</glyph>
<glyph name="Egrave" format="1">
  <advance width="500"/>
  <unicode hex="00C8"/>
  <outline>
    <contour>
      <point x="57" y="0" type="line"/>
      <point x="57" y="640" type="line"/>
      <point x="441" y="640" type="line"/>
      <point x="441" y="544" type="line"/>
      <point x="153" y="544" type="line"/>
      <point x="153" y="384" type="line"/>
      <point x="441" y="384" type="line"/>
      <point x="441" y="288" type="line"/>
      <point x="153" y="288" type="line"/>
      <point x="153" y="96" type="line"/>
      <point x="441" y="96" type="line"/>
      <point x="441" y="0" type="line"/>
    </contour>
    <contour>
      <point x="217" y="704" type="line"/>
      <point x="217" y="736" type="line"/>
      <point x="185" y="736" type="line"/>
      <point x="185" y="768" type="line"/>
      <point x="153" y="768" type="line"/>
      <point x="153" y="800" type="line"/>
      <point x="249" y="800" type="line"/>
      <point x="249" y="768" type="line"/>
      <point x="281" y="768" type="line"/>
      <point x="281" y="736" type="line"/>
      <point x="313" y="736" type="line"/>
      <point x="313" y="704" type="line"/>
    </contour>
  </outline>
</glyph>
<glyph name="idieresis" format="1">
  <advance width="362"/>
  <unicode hex="00EF"/>
  <outline>
    <contour>
      <point x="111" y="0" type="line"/>
      <point x="111" y="480" type="line"/>
      <point x="207" y="480" type="line"/>
      <point x="207" y="0" type="line"/>
    </contour>
    <contour>
      <point x="15" y="544" type="line"/>
      <point x="15" y="640" type="line"/>
      <point x="111" y="640" type="line"/>
      <point x="111" y="544" type="line"/>
    </contour>
    <contour>
      <point x="207" y="544" type="line"/>
      <point x="207" y="640" type="line"/>
      <point x="303" y="640" type="line"/>
      <point x="303" y="544" type="line"/>
    </contour>
  </outline>
</glyph>
<glyph name="ocircumflex" format="1">
  <advance width="479"/>
  <unicode hex="00F4"/>
  <outline>
    <contour>
      <point x="303" y="96" type="line"/>
      <point x="303" y="128" type="line"/>
      <point x="335" y="128" type="line"/>
      <point x="335" y="352" type="line"/>
      <point x="303" y="352" type="line"/>
      <point x="303" y="384" type="line"/>
      <point x="175" y="384" type="line"/>
      <point x="175" y="352" type="line"/>
      <point x="143" y="352" type="line"/>
      <point x="143" y="128" type="line"/>
      <point x="175" y="128" type="line"/>
      <point x="175" y="96" type="line"/>
    </contour>
    <contour>
      <point x="175" y="0" type="line"/>
      <point x="175" y="32" type="line"/>
      <point x="111" y="32" type="line"/>
      <point x="111" y="64" type="line"/>
      <point x="79" y="64" type="line"/>
      <point x="79" y="128" type="line"/>
      <point x="47" y="128" type="line"/>
      <point x="47" y="352" type="line"/>
      <point x="79" y="352" type="line"/>
      <point x="79" y="416" type="line"/>
      <point x="111" y="416" type="line"/>
      <point x="111" y="448" type="line"/>
      <point x="175" y="448" type="line"/>
      <point x="175" y="480" type="line"/>
      <point x="303" y="480" type="line"/>
      <point x="303" y="448" type="line"/>
      <point x="367" y="448" type="line"/>
      <point x="367" y="416" type="line"/>
      <point x="399" y="416" type="line"/>
      <point x="399" y="352" type="line"/>
      <point x="431" y="352" type="line"/>
      <point x="431" y="128" type="line"/>
      <point x="399" y="128" type="line"/>
      <point x="399" y="64" type="line"/>
      <point x="367" y="64" type="line"/>
      <point x="367" y="32" type="line"/>
      <point x="303" y="32" type="line"/>
      <point x="303" y="0" type="line"/>
    </contour>
    <contour>
      <point x="79" y="512" type="line"/>
      <point x="79" y="544" type="line"/>
      <point x="111" y="544" type="line"/>
      <point x="111" y="576" type="line"/>
      <point x="143" y="576" type="line"/>
      <point x="143" y="608" type="line"/>
      <point x="175" y="608" type="line"/>
      <point x="175" y="640" type="line"/>
      <point x="303" y="640" type="line"/>
      <point x="303" y="608" type="line"/>
      <point x="335" y="608" type="line"/>
      <point x="335" y="576" type="line"/>
      <point x="367" y="576" type="line"/>
      <point x="367" y="544" type="line"/>
      <point x="399" y="544" type="line"/>
      <point x="399" y="512" type="line"/>
      <point x="335" y="512" type="line"/>
      <point x="335" y="544" type="line"/>
      <point x="271" y="544" type="line"/>
      <point x="271" y="576" type="line"/>
      <point x="207" y="576" type="line"/>
      <point x="207" y="544" type="line"/>
      <point x="143" y="544" type="line"/>
      <point x="143" y="512" type="line"/>
    </contour>
  </outline>
</glyph>
<glyph name="quoteright" format="1">
  <advance width="187"/>
  <unicode hex="2019"/>
  <outline>
    <contour>
      <point x="32" y="480" type="line"/>
      <point x="32" y="512" type="line"/>
      <point x="64" y="512" type="line"/>
      <point x="64" y="576" type="line"/>
      <point x="32" y="576" type="line"/>
      <point x="32" y="640" type="line"/>
      <point x="128" y="640" type="line"/>
      <point x="128" y="512" type="line"/>
      <point x="96" y="512" type="line"/>
      <point x="96" y="480" type="line"/>
    </contour>
  </outline>
</glyph>
<glyph name="pixel" format="1">
  <advance width="32"/>
  <outline>
    <contour>
      <point x="0" y="32" type="line"/>
      <point x="11" y="32"/>
      <point x="21" y="32"/>
      <point x="32" y="32" type="curve"/>
      <point x="32" y="32" type="line"/>
      <point x="32" y="21"/>
      <point x="32" y="11"/>
      <point x="32" y="0" type="curve"/>
      <point x="32" y="0" type="line"/>
      <point x="21" y="0"/>
      <point x="11" y="0"/>
      <point x="0" y="0" type="curve"/>
      <point x="0" y="0" type="line"/>
      <point x="0" y="11"/>
      <point x="0" y="21"/>
      <point x="0" y="32" type="curve"/>
    </contour>
    <contour>
      <point x="16" y="16"/>
      <point x="16" y="16"/>
      <point x="16" y="16" type="curve"/>
      <point x="16" y="16"/>
      <point x="16" y="16"/>
      <point x="16" y="16" type="curve"/>
      <point x="16" y="16"/>
      <point x="16" y="16"/>
      <point x="16" y="16" type="curve"/>
      <point x="16" y="16"/>
      <point x="16" y="16"/>
      <point x="16" y="16" type="curve"/>
    </contour>
  </outline>
</glyph>
